<svg id="Calque_1" data-name="Calque 1" xmlns="http://www.w3.org/2000/svg" viewBox="0 0 542.72 696.76"><defs><style>.cls-1,.cls-2{fill:#e71d73;}.cls-1{stroke:#e71d73;stroke-miterlimit:10;}</style></defs><path class="cls-1" d="M491,609.59l-191-191C161.1,279.72,360.5,80.33,499.34,219.17c144.61-144.62,335.63,46.4,191,191Z" transform="translate(-252.41 -167.17)"/><ellipse class="cls-1" cx="434.56" cy="804.88" rx="91.07" ry="58.07" transform="translate(-334.28 -117.25) rotate(-6.01)"/><rect class="cls-1" x="203.4" y="207.71" width="70.35" height="424.56"/><path class="cls-2" d="M792.62,602.33c-32.31,3.38-66.62-7.06-89-32.43-38.79-44.75-68.62-91-107.41-137.24-13.43-16.41-29.84-29.84-49.23-38.79-29.84-11.94-62.66-1.49-91.17,11.36l16.53,84.16c42.09-6.21,77.46,22.19,107.38,47.8,16.84,14.41,33.58,28.89,53,39.77,21.71,12.16,45.83,18.87,70.37,22.36,29.51,4.2,59.44,3.94,89.16,3" transform="translate(-252.41 -167.17)"/><path class="cls-2" d="M792.62,599.83c-24.23,2.48-49.3-2.73-69.69-16.34-11.55-7.72-20.2-18.25-29-28.87-9.7-11.75-19.05-23.78-28.26-35.92-18.58-24.5-36.63-49.39-55.88-73.37-9-11.19-17.93-22.5-28.72-32-9.77-8.63-20.88-16.35-32.86-21.6C535.15,386,520,385.17,505.94,387c-14.3,1.85-28.1,6.3-41.39,11.77q-5,2.08-10,4.32a2.52,2.52,0,0,0-1.15,2.82L459,434.32l8.9,45.31,2.05,10.42c.28,1.44,1.82,1.93,3.07,1.75,20.57-3,40.8,3,58.68,13,18.17,10.12,34,23.7,49.78,37.16,17.94,15.35,36.27,30.65,57.58,41.13s44.32,16.19,67.68,19.22c25.17,3.27,50.63,3.42,76,2.82l9.58-.26c3.21-.1,3.22-5.1,0-5-25.56.76-51.21,1.06-76.68-1.53-23.53-2.4-47.12-7.37-68.79-17.1s-40.31-24.5-58.3-39.82c-16.11-13.71-32.1-27.8-50.35-38.66-17.62-10.49-37.61-17.74-58.37-16.62-2.72.15-5.42.45-8.11.84l3.08,1.74-5.58-28.42L460.26,415l-2-10.42-1.15,2.83C482.46,396,511.86,385.94,539.71,394a78.09,78.09,0,0,1,18.34,8.54A129,129,0,0,1,574,413.8c10.83,8.93,19.72,19.58,28.54,30.42,19.32,23.75,37.33,48.5,55.77,72.93,9.16,12.13,18.43,24.18,28,36,8.82,10.87,17.5,22.16,28.65,30.76,19.46,15,44.3,22.16,68.74,21.53,3-.08,6-.28,8.92-.58a2.57,2.57,0,0,0,2.5-2.5,2.5,2.5,0,0,0-2.5-2.5Z" transform="translate(-252.41 -167.17)"/></svg>